<svg width="530" height="124" viewBox="0 0 530 124" fill="none" xmlns="http://www.w3.org/2000/svg">
    <path
        d="M0 108.413V15.8512H20.2314L53.8182 70.4628L39.5372 70.3306L73.5207 15.8512H93.0909V108.413H71.1405V80.3802C71.1405 72.27 71.3168 64.9972 71.6694 58.562C72.1102 52.0386 72.8154 45.6474 73.7851 39.3884L76.2975 46.2645L50.7769 85.8017H41.7851L16.7934 46.5289L19.3058 39.3884C20.3636 45.2948 21.0689 51.4215 21.4215 57.7686C21.8623 64.0276 22.0826 71.5647 22.0826 80.3802V108.413H0Z"
        fill="#FF4C00"
    />
    <path
        d="M105.908 108.413L142.536 15.8512H161.71L198.073 108.413H175.33L157.743 61.4711C157.126 59.6198 156.42 57.6364 155.627 55.5207C154.922 53.405 154.217 51.2011 153.511 48.9091C152.806 46.6171 152.145 44.4132 151.528 42.2975C150.911 40.1818 150.382 38.1983 149.941 36.3471L153.776 36.2149C153.247 38.4187 152.674 40.5785 152.057 42.6942C151.44 44.8099 150.779 46.9256 150.073 49.0413C149.368 51.157 148.619 53.2727 147.825 55.3884C147.12 57.416 146.371 59.5317 145.577 61.7355L128.123 108.413H105.908ZM123.363 90.6942L130.503 73.5041H172.817L179.958 90.6942H123.363Z"
        fill="#FF4C00"
    />
    <path
        d="M210.935 108.413V15.8512H231.166L279.827 81.8347L275.464 81.3058C274.847 76.3691 274.318 71.7851 273.877 67.5537C273.436 63.2342 273.128 58.7383 272.951 54.0661C272.863 49.3939 272.819 44.0165 272.819 37.9339V15.8512H294.77V108.413H274.274L223.761 40.4463L230.241 41.3719C230.858 46.7493 231.343 51.2011 231.695 54.7273C232.048 58.2534 232.312 61.2948 232.489 63.8512C232.665 66.3196 232.797 68.6557 232.885 70.8595C232.973 72.9752 233.018 75.3554 233.018 78V108.413H210.935Z"
        fill="#FF4C00"
    />
    <path
        d="M362.025 109.736C354.62 109.736 347.92 108.545 341.926 106.165C336.019 103.785 330.906 100.435 326.587 96.1157C322.267 91.7961 318.961 86.7273 316.669 80.9091C314.377 75.0909 313.231 68.7438 313.231 61.8678C313.231 54.9917 314.466 48.6446 316.934 42.8264C319.402 37.0083 322.84 31.9394 327.248 27.6198C331.744 23.3003 337.033 19.9504 343.116 17.5702C349.286 15.1901 356.03 14 363.347 14C368.372 14 373.132 14.6612 377.628 15.9835C382.212 17.3058 386.355 19.113 390.058 21.405C393.848 23.697 396.978 26.2975 399.446 29.2066L385.562 43.7521C382.388 40.7548 378.95 38.4187 375.248 36.7438C371.634 34.9807 367.534 34.0992 362.95 34.0992C359.16 34.0992 355.634 34.8044 352.372 36.2149C349.198 37.5372 346.377 39.4766 343.909 42.0331C341.529 44.5014 339.678 47.4545 338.355 50.8926C337.033 54.2424 336.372 57.9008 336.372 61.8678C336.372 65.8347 337.077 69.4931 338.488 72.843C339.898 76.1928 341.837 79.146 344.306 81.7025C346.862 84.1708 349.815 86.1102 353.165 87.5207C356.515 88.9311 360.129 89.6364 364.008 89.6364C366.741 89.6364 369.253 89.2397 371.545 88.4463C373.926 87.5647 375.997 86.4187 377.76 85.0083C379.612 83.5096 381.022 81.7906 381.992 79.8512C383.05 77.8237 383.579 75.6639 383.579 73.3719V69.9339L386.488 74.4298H361.231V56.5785H404.736C404.912 57.5482 405.044 58.8705 405.132 60.5455C405.22 62.2204 405.264 63.8512 405.264 65.438C405.353 66.9366 405.397 68.1267 405.397 69.0083C405.397 75.0028 404.295 80.5124 402.091 85.5372C399.975 90.4738 396.934 94.7493 392.967 98.3636C389.088 101.978 384.504 104.799 379.215 106.826C373.926 108.766 368.196 109.736 362.025 109.736Z"
        fill="#FF4C00"
    />
    <path
        d="M467.529 110C460.546 110 454.093 108.81 448.17 106.43C442.336 104.05 437.253 100.744 432.921 96.5124C428.678 92.1929 425.363 87.124 422.977 81.3058C420.59 75.3995 419.396 68.9642 419.396 62C419.396 55.124 420.59 48.7769 422.977 42.9587C425.363 37.0523 428.678 31.9394 432.921 27.6198C437.253 23.3003 442.336 19.9504 448.17 17.5703C454.093 15.1901 460.546 14 467.529 14C474.424 14 480.789 15.1901 486.623 17.5703C492.457 19.9504 497.496 23.3003 501.739 27.6198C506.071 31.9394 509.43 37.0523 511.816 42.9587C514.203 48.7769 515.396 55.1681 515.396 62.1322C515.396 69.0083 514.203 75.3554 511.816 81.1736C509.43 86.9917 506.071 92.0606 501.739 96.3802C497.496 100.7 492.457 104.05 486.623 106.43C480.789 108.81 474.424 110 467.529 110Z"
        fill="#FF4C00"
    />
    <path
        d="M519.175 28.9333C517.135 28.9333 515.32 28.7281 513.728 28.3177C512.137 27.856 510.47 27.1891 508.729 26.317L512.087 20.2379C512.982 20.7509 513.853 21.1613 514.698 21.4691C515.594 21.7256 516.514 21.8539 517.459 21.8539C518.553 21.8539 519.448 21.5974 520.145 21.0844C520.841 20.5201 521.189 19.8019 521.189 18.9298C521.189 18.1603 520.866 17.5447 520.219 17.083C519.622 16.57 518.752 16.3135 517.608 16.3135C516.961 16.3135 516.29 16.3904 515.594 16.5443C514.897 16.6982 514.201 16.9034 513.504 17.1599L511.788 12.3121L522.234 4.92482L522.831 7.00248H510.819V0H527.009L527.755 6.46383L518.951 13.0046L518.503 12.466C519.001 12.1582 519.548 11.9273 520.145 11.7734C520.742 11.6195 521.214 11.5426 521.562 11.5426C523.85 11.5426 525.715 12.2864 527.158 13.7741C528.65 15.2105 529.396 17.1343 529.396 19.5454C529.396 21.3922 528.924 23.0338 527.979 24.4702C527.034 25.8553 525.79 26.9583 524.248 27.7791C522.706 28.5486 521.015 28.9333 519.175 28.9333Z"
        fill="#FF4C00"
    />
</svg>
